<svg xmlns="http://www.w3.org/2000/svg" xmlns:xlink="http://www.w3.org/1999/xlink" width="500" zoomAndPan="magnify" viewBox="0 0 375 374.999991" height="500" preserveAspectRatio="xMidYMid meet" version="1.2"><defs><clipPath id="447f97307b"><path d="M 100.875 3 L 259.875 3 L 259.875 372 L 100.875 372 Z M 100.875 3 "/></clipPath></defs><g id="f925ee687d"><g clip-rule="nonzero" clip-path="url(#447f97307b)"><path style=" stroke:none;fill-rule:nonzero;fill:#000000;fill-opacity:1;" d="M 257.273438 346.308594 C 256.878906 345.570312 256.417969 344.886719 255.929688 344.222656 C 255.929688 344.222656 255.929688 344.222656 255.929688 344.21875 C 252.992188 336.394531 250.941406 325.167969 250.941406 325.167969 C 249.253906 313.175781 240.558594 275.789062 237.707031 263.628906 C 236.648438 251.492188 236.164062 237.554688 236.164062 237.554688 C 236.480469 228.824219 231.347656 221.773438 231.347656 221.773438 L 217.679688 201.164062 C 217.949219 200.605469 218.050781 199.917969 217.972656 199.136719 C 217.808594 197.5625 216.929688 197.242188 215.675781 196.464844 C 214.519531 195.746094 214.519531 195.824219 214.515625 194.511719 C 214.511719 193.667969 215.03125 192.535156 213.71875 192.769531 C 214.675781 192.027344 215.386719 191.132812 215.140625 189.757812 C 214.882812 188.324219 212.933594 187.625 212.34375 189.273438 C 210.015625 189.761719 210.441406 186.753906 209.132812 185.925781 C 211.144531 183.292969 206.195312 179.261719 203.246094 179.839844 C 203.214844 179.40625 203.152344 178.976562 203.046875 178.578125 C 202.675781 177.222656 202.535156 177.171875 201.046875 177.796875 C 201.5 176.164062 199.5 174.445312 199.128906 176.414062 C 196.8125 176.644531 198.515625 174.128906 197.957031 173.058594 C 197.097656 171.402344 195.171875 172.894531 194.960938 170.613281 C 194.832031 169.238281 195.960938 168.136719 196.167969 166.90625 C 196.472656 165.160156 195.300781 164.578125 194.507812 163.585938 C 195.285156 163.167969 196.066406 162.765625 196.015625 161.917969 C 195.976562 161.320312 195.023438 160.84375 194.832031 160.320312 C 193.875 157.667969 196.347656 158.839844 197.332031 157.78125 C 198.570312 156.449219 196.359375 153.3125 194.625 152 C 193.25 141.6875 199.472656 133.851562 199.472656 133.851562 C 203.046875 129.40625 206.3125 116.390625 206.3125 116.390625 C 207.246094 113.019531 209.578125 108.425781 209.578125 108.425781 C 216.050781 97.105469 209.621094 90.902344 204.699219 88.050781 C 204.214844 82.386719 214.320312 73.882812 214.320312 73.882812 C 224.234375 65.035156 233.210938 46.308594 233.210938 46.308594 C 235.425781 42.519531 231.699219 39.648438 231.699219 39.648438 C 226.683594 34.476562 211.640625 26.089844 211.640625 26.089844 C 207.710938 24.109375 202.855469 21.144531 200.933594 19.949219 C 200.722656 18.292969 199.109375 16.859375 197.449219 17.632812 C 196.933594 15.820312 194.183594 15.039062 193.5625 17.359375 L 193.472656 17.769531 C 193.082031 17.585938 192.691406 17.390625 192.28125 17.242188 C 190.691406 16.664062 189.328125 16.019531 187.730469 15.292969 C 186.058594 14.523438 184.375 14.207031 182.714844 13.542969 C 181.082031 12.894531 179.644531 12.042969 178.164062 11.070312 C 177.074219 10.351562 176.082031 10.207031 175.121094 10.503906 C 174.46875 10.007812 173.835938 9.199219 173.484375 8.804688 C 172.738281 7.984375 172.054688 7.078125 171.1875 6.390625 C 170.335938 5.710938 169.28125 5.640625 168.296875 5.332031 C 167.15625 4.972656 165.964844 4.671875 164.789062 4.339844 C 164.070312 4.140625 161.929688 2.96875 161.351562 3.863281 C 160.726562 4.824219 162.339844 5.972656 163.003906 6.3125 C 164.066406 6.851562 165.191406 7.101562 166.269531 7.421875 C 167.414062 7.757812 168.367188 8.355469 169.230469 9.179688 C 169.878906 9.796875 170.164062 10.660156 170.632812 11.367188 C 169.742188 11.425781 168.644531 11.75 168.058594 11.921875 C 167.03125 12.226562 166.433594 13.097656 165.632812 13.816406 C 163.921875 15.355469 162.019531 16.6875 160.265625 18.183594 C 159.707031 18.664062 158.617188 19.292969 158.960938 20.195312 C 159.261719 20.980469 160.285156 20.929688 161.035156 20.640625 C 162.0625 22 165.984375 19.515625 168.003906 18.035156 C 168.539062 19.015625 169.984375 19.179688 170.917969 19.441406 C 172.015625 19.753906 173.085938 20.296875 174.0625 20.863281 C 175.027344 21.425781 175.914062 22.210938 176.921875 22.722656 C 178.082031 23.304688 179.558594 23.605469 180.8125 23.851562 C 182.546875 24.191406 184.667969 24.066406 186.578125 23.984375 C 187.820312 24.414062 189.261719 24.992188 190.289062 25.667969 C 189.230469 27.171875 191.667969 29.09375 192.882812 28.480469 C 193.515625 29.660156 195.847656 30.894531 197.226562 29.507812 C 199.089844 30.660156 202.105469 32.785156 205.691406 36.316406 C 205.691406 36.316406 213.125 44.046875 216.386719 47.453125 C 216.171875 48.457031 215.660156 50.019531 214.4375 51.363281 C 214.4375 51.363281 207.789062 59.980469 203.007812 61.820312 C 203.007812 61.820312 199.433594 63.121094 195.410156 65.300781 C 195.230469 65.179688 195.042969 65.0625 194.84375 64.953125 C 193.550781 64.230469 192 63.796875 190.410156 63.566406 C 189.507812 63.449219 188.605469 63.277344 187.808594 62.988281 C 187.890625 62.894531 187.972656 62.792969 188.050781 62.6875 C 188.222656 62.449219 188.378906 62.160156 188.496094 61.929688 C 188.753906 61.417969 188.988281 60.769531 188.917969 60.074219 C 188.890625 59.839844 188.820312 59.617188 188.730469 59.40625 C 188.90625 59.179688 189.089844 58.957031 189.261719 58.71875 C 189.503906 58.398438 189.734375 58.058594 189.949219 57.691406 C 190.054688 57.511719 190.140625 57.308594 190.234375 57.113281 L 190.472656 56.570312 C 190.789062 55.777344 191.011719 54.980469 191.113281 54.140625 C 191.214844 53.308594 191.183594 52.445312 190.972656 51.625 C 190.832031 51.070312 190.601562 50.546875 190.304688 50.070312 C 190.378906 49.933594 190.484375 49.757812 190.582031 49.519531 C 190.847656 48.964844 191.132812 48.125 191.28125 47.0625 C 191.429688 46 191.386719 44.726562 191.105469 43.382812 C 190.8125 42.046875 190.273438 40.640625 189.457031 39.359375 L 189.304688 39.117188 L 189.285156 39.089844 L 189.273438 39.074219 L 189.234375 39.023438 L 189.1875 38.96875 L 189.101562 38.863281 L 188.746094 38.441406 C 188.566406 38.195312 188.304688 37.964844 188.058594 37.734375 C 188.0625 37.722656 188.070312 37.710938 188.078125 37.699219 C 188.125 37.59375 188.179688 37.5 188.222656 37.355469 L 188.238281 37.300781 L 188.253906 37.222656 L 188.289062 37 L 188.339844 36.699219 L 188.367188 36.546875 L 188.375 36.375 C 188.375 36.140625 188.414062 35.894531 188.363281 35.667969 C 188.328125 35.433594 188.3125 35.199219 188.21875 34.972656 L 188.09375 34.628906 L 187.914062 34.308594 C 187.804688 34.082031 187.617188 33.917969 187.464844 33.730469 C 187.285156 33.570312 187.105469 33.40625 186.910156 33.28125 C 186.714844 33.160156 186.519531 33.027344 186.316406 32.9375 C 186.113281 32.835938 185.914062 32.746094 185.710938 32.675781 C 184.902344 32.371094 184.113281 32.195312 183.371094 32.03125 C 182.636719 31.867188 181.929688 31.710938 181.265625 31.5625 C 179.980469 31.265625 178.855469 30.914062 178.003906 30.59375 C 177.941406 30.570312 177.886719 30.546875 177.824219 30.523438 C 175.65625 27.140625 172.207031 25.136719 168.601562 23.476562 C 166.777344 22.640625 164.800781 22.25 162.769531 22.640625 C 161.429688 22.894531 159.234375 23.851562 158.339844 25.210938 C 157.4375 24.910156 156.632812 24.816406 155.460938 25.230469 C 153.90625 25.773438 152.496094 26.953125 151.417969 28.15625 C 149.085938 30.75 147.769531 34.117188 144.660156 35.914062 C 141.699219 37.621094 139.746094 40.019531 138.53125 43.265625 C 137.671875 45.5625 137.535156 48.265625 137.773438 50.789062 C 136.871094 51.273438 135.886719 51.839844 134.96875 52.5 C 134.644531 52.714844 134.355469 52.980469 134.058594 53.21875 C 133.773438 53.464844 133.515625 53.742188 133.261719 53.992188 C 133.035156 54.273438 132.804688 54.523438 132.621094 54.792969 C 132.449219 55.066406 132.273438 55.316406 132.148438 55.5625 C 132.03125 55.816406 131.925781 56.046875 131.832031 56.25 C 131.742188 56.453125 131.707031 56.640625 131.65625 56.792969 C 131.566406 57.089844 131.515625 57.261719 131.515625 57.261719 C 131.515625 57.261719 131.59375 57.101562 131.730469 56.820312 C 131.804688 56.679688 131.867188 56.496094 131.988281 56.3125 C 132.105469 56.132812 132.242188 55.929688 132.390625 55.707031 C 132.546875 55.496094 132.75 55.285156 132.949219 55.050781 C 133.15625 54.828125 133.414062 54.625 133.65625 54.398438 C 133.933594 54.199219 134.207031 53.984375 134.507812 53.792969 C 134.820312 53.613281 135.117188 53.410156 135.457031 53.253906 C 135.8125 53.066406 136.179688 52.898438 136.550781 52.734375 C 135.386719 53.757812 134.070312 55.101562 133.199219 56.71875 C 132.734375 57.582031 132.402344 58.511719 132.300781 59.40625 C 132.1875 60.296875 132.28125 61.125 132.460938 61.789062 C 132.539062 62.128906 132.667969 62.417969 132.761719 62.675781 C 132.882812 62.929688 132.980469 63.148438 133.074219 63.320312 C 133.269531 63.65625 133.382812 63.847656 133.382812 63.847656 C 133.382812 63.847656 133.296875 63.644531 133.144531 63.285156 C 133.074219 63.101562 133.003906 62.875 132.917969 62.621094 C 132.859375 62.355469 132.773438 62.066406 132.738281 61.734375 C 132.648438 61.082031 132.660156 60.300781 132.863281 59.507812 C 132.984375 59.019531 133.183594 58.535156 133.4375 58.066406 C 133.296875 58.507812 133.199219 58.925781 133.117188 59.316406 C 132.960938 60.136719 132.933594 60.839844 133.039062 61.390625 C 133.113281 61.804688 133.285156 62.113281 133.46875 62.300781 C 133.558594 62.65625 133.667969 62.984375 133.785156 63.285156 C 134.027344 63.894531 134.382812 64.34375 134.707031 64.542969 C 135.03125 64.75 135.253906 64.753906 135.25 64.765625 C 135.257812 64.757812 135.03125 64.71875 134.753906 64.480469 C 134.476562 64.25 134.207031 63.796875 134.054688 63.195312 C 134.007812 63.011719 133.96875 62.808594 133.933594 62.597656 C 133.980469 62.613281 134.007812 62.617188 134.003906 62.621094 C 134.007812 62.617188 133.980469 62.609375 133.929688 62.585938 C 133.855469 62.121094 133.808594 61.609375 133.808594 61.082031 C 133.808594 60.882812 133.8125 60.675781 133.8125 60.46875 C 133.835938 60.269531 133.867188 60.078125 133.894531 59.882812 C 133.910156 59.6875 133.964844 59.492188 134.027344 59.296875 C 134.089844 59.101562 134.117188 58.894531 134.214844 58.714844 C 134.363281 58.308594 134.570312 57.933594 134.808594 57.578125 C 134.832031 57.695312 134.855469 57.8125 134.878906 57.929688 C 134.945312 58.160156 135.023438 58.394531 135.132812 58.609375 C 135.230469 58.777344 135.324219 58.953125 135.4375 59.109375 C 135.429688 59.355469 135.429688 59.601562 135.421875 59.84375 C 135.414062 60.027344 135.4375 60.183594 135.457031 60.34375 L 135.539062 61.070312 L 135.550781 61.164062 L 135.5625 61.230469 L 135.59375 61.355469 C 135.640625 61.527344 135.671875 61.699219 135.722656 61.863281 C 135.925781 62.523438 136.230469 63.132812 136.5625 63.699219 C 136.679688 63.882812 136.800781 64.054688 136.925781 64.226562 C 136.675781 64.472656 136.398438 64.726562 136.113281 65.015625 C 135.828125 65.304688 135.53125 65.628906 135.28125 66.039062 C 135.03125 66.445312 134.851562 66.964844 134.859375 67.492188 C 134.855469 67.628906 134.878906 67.777344 134.894531 67.914062 C 134.914062 68.035156 134.941406 68.117188 134.964844 68.21875 L 134.988281 68.308594 L 135.003906 68.355469 L 135.042969 68.449219 L 135.121094 68.628906 C 135.183594 68.746094 135.25 68.859375 135.320312 68.96875 C 135.632812 69.398438 136.027344 69.6875 136.367188 69.933594 C 136.492188 70.023438 136.605469 70.105469 136.710938 70.191406 C 136.359375 70.359375 136 70.53125 135.632812 70.707031 C 135.304688 70.886719 134.984375 71.023438 134.648438 71.234375 C 134.320312 71.441406 133.96875 71.644531 133.71875 71.875 L 133.3125 72.214844 C 133.15625 72.355469 133.035156 72.496094 132.898438 72.636719 C 132.757812 72.769531 132.65625 72.9375 132.550781 73.09375 C 132.445312 73.253906 132.335938 73.40625 132.269531 73.582031 C 131.925781 74.246094 131.808594 74.96875 131.792969 75.644531 C 131.761719 77.003906 132.257812 78.207031 132.902344 79.03125 C 133.304688 79.558594 133.777344 79.917969 134.222656 80.144531 C 133.917969 80.492188 133.625 80.867188 133.359375 81.289062 C 133.21875 81.519531 133.082031 81.761719 132.964844 82.019531 C 132.792969 82.246094 132.628906 82.480469 132.46875 82.726562 C 132.019531 83.441406 131.621094 84.238281 131.417969 85.117188 C 131.210938 85.992188 131.226562 86.960938 131.554688 87.820312 C 131.625 88.039062 131.738281 88.238281 131.847656 88.4375 C 131.945312 88.644531 132.09375 88.816406 132.222656 88.992188 C 132.347656 89.175781 132.515625 89.332031 132.671875 89.492188 C 132.753906 89.570312 132.832031 89.652344 132.914062 89.722656 L 133.148438 89.910156 C 133.800781 90.464844 134.59375 90.800781 135.320312 91.050781 C 135.902344 91.246094 136.46875 91.402344 137.003906 91.550781 C 136.945312 91.726562 136.882812 91.898438 136.824219 92.070312 C 136.460938 93.097656 136.171875 94.097656 136.191406 94.988281 C 136.199219 95.429688 136.300781 95.835938 136.472656 96.152344 C 136.628906 96.4375 136.824219 96.648438 137.007812 96.796875 C 135.734375 99.082031 133.949219 101.929688 132.101562 103.753906 C 132.101562 103.753906 126.035156 110.761719 122.1875 118.6875 C 122.1875 118.6875 121.253906 120.410156 120.4375 121.789062 C 120.4375 121.789062 118.6875 124.546875 118.6875 126.957031 C 118.6875 126.957031 118.570312 138.679688 121.71875 147.753906 C 121.71875 147.753906 126.121094 159.800781 127.8125 166.730469 C 126.34375 166.945312 125.617188 168.289062 125.6875 169.8125 C 125.753906 171.199219 126.351562 172.046875 127.355469 172.300781 C 126.621094 173.144531 126.550781 174.695312 127.054688 175.554688 C 127.695312 176.640625 128.648438 176.984375 129.65625 176.855469 C 130.277344 178.859375 129.820312 181.882812 129.625 183.855469 C 129.5 185.160156 129.347656 186.640625 129.851562 187.847656 C 130.25 188.804688 130.925781 189.636719 131.554688 190.5 C 131.046875 192.539062 129.910156 194.386719 130.664062 196.578125 C 131.078125 197.785156 131.144531 199.066406 131.207031 200.332031 C 131.261719 201.394531 130.699219 203.480469 132.0625 203.78125 C 134.117188 204.230469 134.226562 199.945312 134.183594 197.046875 C 134.628906 198.042969 135.167969 199.105469 135.554688 200.023438 C 135.824219 200.644531 136.34375 201.65625 137.113281 201.714844 C 137.792969 201.765625 138.132812 201.363281 138.296875 200.816406 C 138.722656 201.460938 139.308594 202.183594 139.582031 202.480469 C 140.703125 203.679688 141.386719 202.324219 141.3125 201.175781 C 141.167969 198.941406 139.566406 197.164062 138.375 195.351562 C 137.863281 194.574219 137.511719 193.667969 137.136719 192.824219 C 136.839844 192.175781 136.492188 191.464844 136.179688 190.738281 C 136.414062 190.496094 136.691406 190.269531 136.886719 190.066406 C 137.433594 189.503906 137.734375 188.929688 138.050781 188.226562 C 138.59375 187.007812 138.75 185.839844 138.867188 184.59375 C 139.167969 185.480469 139.496094 186.402344 139.585938 187.3125 C 139.707031 188.558594 139.601562 189.878906 139.601562 191.144531 C 139.601562 192.484375 139.628906 193.515625 140.304688 194.664062 C 140.988281 195.839844 142.0625 196.574219 143.003906 195.195312 C 143.625 194.292969 143.511719 192.832031 143.570312 191.753906 C 143.632812 190.507812 143.511719 189.226562 143.570312 188.003906 C 143.632812 186.796875 143.769531 185.492188 143.507812 184.308594 C 143.300781 183.375 142.996094 182.460938 142.695312 181.539062 C 143.429688 181.480469 144.203125 181.308594 144.605469 181.617188 C 145.277344 182.113281 144.792969 182.738281 145.164062 183.28125 C 145.546875 183.851562 146.503906 183.90625 147 183.613281 C 147.375 184.679688 148.542969 184.777344 149.351562 184.320312 C 149.777344 185.84375 150.914062 189 153.675781 192.214844 C 153.675781 192.214844 160.671875 202.09375 161.375 214.386719 C 161.375 214.386719 161.375 224.664062 162.191406 229.578125 C 160.730469 233.070312 155.058594 246.878906 151.929688 257.925781 L 137.585938 304.570312 C 137.585938 304.570312 128.835938 326.859375 115.542969 332.488281 C 115.542969 332.488281 105.066406 337.648438 100.855469 340.972656 C 103.355469 345.796875 107.183594 349.945312 111.765625 353.007812 C 114.449219 354.800781 117.207031 356.246094 119.421875 358.570312 C 121.433594 360.679688 122.765625 362.671875 125.609375 363.734375 C 127.207031 364.332031 128.394531 364.65625 129.964844 363.886719 C 132.074219 362.855469 134.039062 360.898438 135.8125 358.953125 C 137.046875 359.789062 138.179688 361.039062 139.410156 361.785156 C 141 362.742188 142.777344 364.253906 144.582031 364.816406 C 147.828125 365.828125 150.644531 364.527344 153.328125 362.875 C 154.480469 363.816406 156.5625 364.367188 157.757812 364.878906 C 159.816406 365.765625 161.753906 366.539062 163.980469 366.832031 C 166.207031 367.125 168.269531 366.695312 170.390625 365.957031 C 172.625 365.175781 174.203125 363.957031 175.515625 362.433594 C 177.6875 365.042969 181.582031 366.636719 184.6875 367.105469 C 189.308594 367.800781 194.082031 366.625 198.652344 367.445312 C 201.992188 368.042969 204.695312 369.546875 207.71875 370.511719 C 211.710938 371.792969 213.351562 366.769531 213.707031 363.203125 C 214.046875 363.789062 214.34375 364.402344 214.589844 364.957031 C 215.222656 366.355469 215.046875 368.074219 215.910156 369.324219 C 217.675781 371.882812 221.410156 369.613281 224.550781 367.933594 C 225.445312 369.367188 226.5625 370.523438 228.546875 371.003906 C 231.445312 371.714844 234.265625 369.824219 236.347656 367.703125 C 237.328125 368.105469 238.210938 368.617188 239.441406 368.710938 C 241.257812 368.847656 242.335938 368.847656 243.90625 367.765625 C 246.863281 365.714844 249.390625 363.128906 252.183594 360.859375 C 254.585938 358.90625 257.667969 357.132812 258.832031 354.117188 C 259.859375 351.464844 258.546875 348.671875 257.273438 346.308594 Z M 133.683594 83.179688 C 134.082031 82.667969 134.519531 82.195312 134.988281 81.765625 C 135.324219 81.453125 135.648438 81.167969 135.96875 80.890625 C 135.746094 81.167969 135.472656 81.484375 135.183594 81.863281 C 134.992188 82.121094 134.792969 82.394531 134.609375 82.722656 C 134.425781 83.039062 134.253906 83.417969 134.171875 83.859375 C 134.121094 84.078125 134.128906 84.324219 134.152344 84.566406 C 134.207031 84.804688 134.269531 85.050781 134.402344 85.25 C 134.511719 85.472656 134.683594 85.621094 134.832031 85.792969 C 135.003906 85.929688 135.199219 86.085938 135.363281 86.1875 C 135.535156 86.277344 135.667969 86.355469 135.871094 86.457031 C 136.0625 86.558594 136.273438 86.625 136.472656 86.675781 C 136.78125 86.75 137.082031 86.773438 137.367188 86.777344 C 137.402344 86.867188 137.433594 86.957031 137.46875 87.042969 C 137.484375 87.082031 137.503906 87.113281 137.519531 87.148438 C 137.648438 87.742188 137.742188 88.320312 137.738281 88.898438 C 137.734375 88.941406 137.726562 88.988281 137.722656 89.035156 C 137.425781 88.78125 137.015625 88.515625 136.535156 88.257812 C 135.882812 87.898438 135.066406 87.523438 134.433594 86.917969 L 134.214844 86.675781 L 134.03125 86.414062 C 133.929688 86.226562 133.84375 86.039062 133.75 85.796875 C 133.640625 85.554688 133.605469 85.355469 133.542969 85.132812 L 133.484375 84.796875 L 133.457031 84.453125 C 133.445312 84.011719 133.527344 83.585938 133.683594 83.179688 Z M 136.675781 73.144531 C 136.71875 73.40625 136.792969 73.667969 136.902344 73.933594 C 135.933594 74.609375 134.972656 75.304688 135.097656 76.640625 C 135.125 76.976562 135.210938 77.261719 135.335938 77.511719 C 135.097656 77.300781 134.863281 77.070312 134.652344 76.828125 C 134.449219 76.574219 134.265625 76.289062 134.1875 75.988281 C 134.101562 75.6875 134.15625 75.390625 134.320312 75.113281 C 134.667969 74.554688 135.335938 74.113281 135.992188 73.648438 C 136.21875 73.488281 136.445312 73.320312 136.675781 73.144531 Z M 138.78125 60.484375 L 138.75 60.460938 L 138.683594 60.417969 L 138.15625 60.066406 C 137.988281 59.945312 137.847656 59.824219 137.695312 59.707031 C 137.535156 59.59375 137.402344 59.457031 137.265625 59.328125 C 137.117188 59.203125 136.996094 59.066406 136.882812 58.925781 C 136.804688 58.835938 136.734375 58.746094 136.671875 58.65625 C 136.710938 58.464844 136.75 58.273438 136.820312 58.09375 C 137.175781 56.992188 137.804688 56.050781 138.453125 55.257812 C 138.492188 55.214844 138.527344 55.171875 138.566406 55.128906 C 138.882812 56.308594 139.265625 57.5 139.601562 58.640625 C 139.777344 59.234375 139.910156 59.816406 140.015625 60.390625 C 139.941406 60.527344 139.859375 60.664062 139.765625 60.8125 C 139.722656 60.882812 139.667969 60.960938 139.617188 61.03125 C 139.484375 60.941406 139.339844 60.851562 139.207031 60.761719 L 138.929688 60.582031 L 138.789062 60.492188 L 138.78125 60.484375 C 138.757812 60.472656 138.804688 60.5 138.796875 60.496094 Z M 137.0625 83.695312 C 137.003906 84.191406 137.027344 84.707031 137.097656 85.199219 C 137.082031 85.492188 137.113281 85.78125 137.164062 86.058594 C 137.003906 86.027344 136.847656 85.988281 136.703125 85.929688 C 136.554688 85.875 136.417969 85.808594 136.296875 85.722656 L 135.867188 85.417969 C 135.730469 85.308594 135.65625 85.210938 135.554688 85.109375 C 135.484375 84.992188 135.378906 84.890625 135.355469 84.773438 C 135.257812 84.554688 135.261719 84.347656 135.34375 84.113281 C 135.488281 83.648438 135.90625 83.179688 136.292969 82.78125 C 136.683594 82.378906 137.085938 82.027344 137.417969 81.695312 C 137.367188 81.75 137.359375 81.753906 137.335938 81.777344 C 137.546875 81.589844 137.738281 81.425781 137.917969 81.269531 C 137.90625 81.285156 137.898438 81.300781 137.886719 81.316406 C 137.835938 81.417969 137.78125 81.519531 137.722656 81.625 C 137.636719 81.777344 137.605469 81.878906 137.542969 82.011719 C 137.324219 82.507812 137.132812 83.078125 137.0625 83.695312 Z M 139.269531 79.378906 C 139.273438 79.359375 139.277344 79.347656 139.285156 79.328125 C 139.304688 79.332031 139.324219 79.335938 139.34375 79.339844 C 139.304688 79.386719 139.273438 79.429688 139.230469 79.476562 C 139.242188 79.445312 139.253906 79.40625 139.269531 79.378906 Z M 140.308594 62.890625 C 140.332031 63.246094 140.347656 63.601562 140.359375 63.960938 C 139.84375 64.460938 139.359375 64.988281 138.949219 65.652344 C 138.714844 65.441406 138.492188 65.214844 138.277344 64.964844 C 138.304688 64.941406 138.332031 64.917969 138.351562 64.894531 C 138.480469 64.773438 138.609375 64.652344 138.734375 64.535156 C 139.328125 63.972656 139.851562 63.421875 140.308594 62.890625 Z M 138.0625 90.75 C 138.253906 90.308594 138.445312 89.84375 138.566406 89.324219 C 138.648438 89.542969 138.703125 89.765625 138.71875 89.984375 C 138.765625 90.445312 138.609375 90.894531 138.382812 91.335938 C 138.347656 91.410156 138.308594 91.480469 138.273438 91.554688 C 138.109375 91.488281 137.953125 91.425781 137.785156 91.363281 C 137.875 91.160156 137.972656 90.960938 138.0625 90.75 Z M 138.59375 92.054688 C 138.816406 92.140625 139.03125 92.230469 139.226562 92.332031 C 139.257812 92.347656 139.285156 92.367188 139.316406 92.382812 C 139.167969 92.644531 139.015625 92.910156 138.863281 93.183594 C 138.863281 93.183594 138.65625 93.636719 138.289062 94.367188 C 138.234375 94.261719 138.1875 94.152344 138.15625 94.035156 C 138.136719 93.933594 138.117188 93.835938 138.09375 93.734375 C 138.089844 93.636719 138.089844 93.542969 138.082031 93.441406 C 138.089844 93.246094 138.121094 93.039062 138.1875 92.839844 C 138.273438 92.574219 138.421875 92.320312 138.59375 92.054688 Z M 139.453125 92.148438 C 139.425781 92.128906 139.398438 92.105469 139.367188 92.085938 C 139.179688 91.976562 138.980469 91.875 138.777344 91.777344 C 138.8125 91.722656 138.847656 91.667969 138.882812 91.609375 C 139.167969 91.175781 139.449219 90.605469 139.453125 89.976562 C 139.464844 89.664062 139.421875 89.351562 139.339844 89.058594 C 139.296875 88.910156 139.261719 88.769531 139.203125 88.613281 L 139.054688 88.222656 C 138.898438 87.828125 138.734375 87.429688 138.597656 87.042969 C 138.585938 86.929688 138.570312 86.8125 138.558594 86.699219 C 138.949219 86.660156 139.316406 86.625 139.652344 86.644531 C 139.945312 86.660156 140.207031 86.730469 140.390625 86.882812 C 140.585938 87.03125 140.699219 87.253906 140.761719 87.46875 C 140.882812 87.902344 140.875 88.296875 140.871094 88.558594 C 140.855469 88.824219 140.847656 88.972656 140.847656 88.972656 C 140.847656 88.972656 140.875 88.828125 140.925781 88.5625 C 140.960938 88.296875 141.023438 87.914062 140.949219 87.425781 C 140.910156 87.183594 140.816406 86.902344 140.589844 86.671875 C 140.367188 86.441406 140.035156 86.3125 139.707031 86.25 C 139.308594 86.179688 138.898438 86.171875 138.484375 86.164062 C 138.445312 85.890625 138.410156 85.628906 138.382812 85.378906 C 138.375 85.304688 138.371094 85.238281 138.367188 85.164062 C 138.453125 84.808594 138.632812 84.464844 138.855469 84.136719 C 139.117188 83.765625 139.421875 83.441406 139.738281 83.078125 C 140.191406 82.578125 140.601562 82.109375 140.960938 81.691406 C 140.671875 82.601562 140.378906 83.507812 140.296875 84.46875 C 140.207031 85.539062 140.558594 86.464844 141.3125 87.210938 C 141.574219 87.46875 141.863281 87.703125 142.148438 87.949219 C 141.324219 89.117188 140.402344 90.527344 139.453125 92.148438 Z M 133.191406 61.371094 C 133.171875 61.183594 133.175781 60.972656 133.191406 60.753906 C 133.203125 60.875 133.222656 60.996094 133.234375 61.117188 C 133.28125 61.472656 133.347656 61.804688 133.421875 62.121094 C 133.3125 61.933594 133.21875 61.6875 133.191406 61.371094 Z M 136.601562 61.640625 C 136.570312 61.496094 136.554688 61.34375 136.53125 61.199219 L 136.511719 61.085938 L 136.507812 61.046875 L 136.507812 61.007812 L 136.5 60.761719 L 136.484375 60.277344 C 136.484375 60.257812 136.484375 60.242188 136.484375 60.222656 C 136.652344 60.359375 136.8125 60.5 136.996094 60.617188 C 137.179688 60.742188 137.375 60.882812 137.554688 60.992188 L 138.105469 61.3125 L 138.667969 61.632812 C 138.789062 61.703125 138.914062 61.769531 139.039062 61.839844 C 138.644531 62.355469 138.183594 62.902344 137.644531 63.480469 C 137.570312 63.5625 137.492188 63.644531 137.414062 63.726562 C 137.34375 63.601562 137.277344 63.480469 137.207031 63.355469 C 136.953125 62.808594 136.730469 62.234375 136.601562 61.640625 Z M 136.289062 68.34375 L 136.195312 68.148438 L 136.140625 67.988281 C 136.125 67.890625 136.101562 67.777344 136.09375 67.695312 C 136.101562 67.632812 136.089844 67.582031 136.097656 67.515625 C 136.125 66.96875 136.542969 66.476562 137.082031 66 C 137.328125 65.78125 137.597656 65.5625 137.867188 65.332031 C 138.140625 65.609375 138.433594 65.847656 138.730469 66.066406 C 138.222656 67.144531 138.390625 68.085938 138.285156 69.324219 C 138.089844 69.453125 137.882812 69.578125 137.667969 69.699219 C 137.460938 69.453125 137.222656 69.265625 137.027344 69.101562 C 136.707031 68.839844 136.445312 68.597656 136.289062 68.34375 Z M 133.132812 78.871094 C 132.59375 78.050781 132.234375 76.890625 132.363281 75.675781 C 132.429688 75.074219 132.585938 74.453125 132.921875 73.921875 C 132.984375 73.777344 133.089844 73.660156 133.1875 73.539062 C 133.285156 73.417969 133.371094 73.285156 133.496094 73.191406 C 133.617188 73.089844 133.734375 72.972656 133.84375 72.886719 L 134.277344 72.578125 C 135.113281 72.007812 136.105469 71.660156 137.125 71.265625 C 137.113281 71.300781 137.101562 71.351562 137.082031 71.398438 C 136.996094 71.535156 136.925781 71.667969 136.863281 71.800781 C 136.546875 72.253906 136.027344 72.675781 135.542969 73.070312 C 134.925781 73.589844 134.234375 74.074219 133.8125 74.851562 C 133.609375 75.238281 133.558594 75.730469 133.710938 76.125 C 133.847656 76.527344 134.089844 76.832031 134.335938 77.097656 C 134.855469 77.625 135.378906 77.996094 135.933594 78.3125 C 135.964844 78.328125 136 78.339844 136.03125 78.355469 C 135.796875 78.566406 135.550781 78.785156 135.289062 79.027344 C 134.972656 79.332031 134.636719 79.664062 134.308594 80.035156 C 133.902344 79.785156 133.472656 79.40625 133.132812 78.871094 Z M 135.527344 90.523438 C 134.839844 90.230469 134.171875 89.890625 133.628906 89.359375 L 133.402344 89.15625 C 133.335938 89.085938 133.285156 89.015625 133.222656 88.949219 C 133.109375 88.808594 132.984375 88.683594 132.890625 88.519531 C 132.792969 88.363281 132.675781 88.214844 132.613281 88.042969 C 132.535156 87.875 132.453125 87.710938 132.414062 87.535156 C 132.203125 86.84375 132.242188 86.09375 132.457031 85.386719 C 132.507812 85.230469 132.5625 85.074219 132.628906 84.917969 C 132.628906 84.929688 132.632812 84.941406 132.632812 84.949219 L 132.753906 85.351562 C 132.847656 85.609375 132.957031 85.894531 133.078125 86.097656 C 133.183594 86.308594 133.332031 86.554688 133.492188 86.777344 C 133.582031 86.878906 133.671875 86.980469 133.757812 87.082031 C 133.859375 87.167969 133.957031 87.253906 134.054688 87.339844 C 134.871094 87.960938 135.730469 88.222656 136.414062 88.511719 C 136.949219 88.722656 137.390625 88.945312 137.707031 89.171875 C 137.648438 89.601562 137.519531 90.054688 137.375 90.492188 C 137.304688 90.707031 137.230469 90.921875 137.15625 91.132812 C 136.621094 90.941406 136.074219 90.75 135.527344 90.523438 Z M 136.472656 94.992188 C 136.535156 94.171875 136.902344 93.25 137.355469 92.277344 C 137.4375 92.097656 137.523438 91.914062 137.613281 91.726562 C 137.78125 91.777344 137.945312 91.828125 138.105469 91.878906 C 137.96875 92.152344 137.84375 92.433594 137.78125 92.730469 C 137.726562 92.976562 137.714844 93.222656 137.734375 93.460938 C 137.753906 93.578125 137.769531 93.695312 137.789062 93.808594 C 137.820312 93.910156 137.851562 94.007812 137.882812 94.105469 C 137.960938 94.296875 138.058594 94.464844 138.171875 94.609375 C 137.875 95.191406 137.492188 95.917969 137.046875 96.722656 C 136.707031 96.382812 136.398438 95.765625 136.472656 94.992188 Z M 163.003906 139.597656 C 163.003906 139.597656 158.871094 151.550781 154.785156 156.875 C 154.617188 156.515625 154.308594 156.261719 153.789062 156.25 C 153.226562 156.234375 153.109375 156.597656 152.707031 156.917969 C 152.054688 157.433594 152.339844 157.488281 151.460938 157.632812 C 150.933594 157.71875 150.320312 157.488281 149.824219 157.714844 C 149.324219 157.945312 149.066406 158.410156 148.660156 158.667969 C 148.015625 159.074219 147.777344 158.792969 147.488281 159.582031 C 147.402344 159.835938 147.382812 160.183594 147.449219 160.5 C 146.953125 160.441406 146.449219 160.558594 146.125 160.992188 C 145.644531 161.632812 146.210938 162.152344 145.890625 162.714844 C 145.585938 163.253906 144.621094 163.328125 144.3125 163.945312 C 144.136719 164.300781 144.089844 164.921875 144.269531 165.34375 C 143.65625 165.550781 143.402344 166.679688 143.414062 167.285156 C 143.417969 167.660156 143.722656 168.273438 143.679688 168.542969 C 143.597656 169.074219 143.15625 169.308594 142.832031 169.789062 C 142.265625 170.625 142.691406 171.167969 142.480469 171.90625 C 142.332031 172.433594 141.722656 173.042969 141.765625 173.566406 C 140.992188 173.667969 140.640625 174.261719 140.546875 175.027344 C 140 174.230469 139.449219 173.359375 139.378906 172.570312 C 141.058594 171.523438 140.625 168.570312 138.972656 168.496094 C 139.984375 166.691406 138.925781 164.070312 137.230469 164.238281 C 136.265625 158.65625 134.898438 143.847656 134.898438 143.847656 C 134.804688 139.730469 133.972656 132.984375 133.640625 130.410156 L 133.640625 130.40625 C 135.480469 126.027344 141.78125 119.03125 141.78125 119.03125 C 146.179688 113.957031 151.054688 109.589844 153.5 107.492188 C 154.691406 109.988281 157.617188 116.058594 158.808594 118.226562 C 158.808594 118.226562 160.089844 121.332031 160.671875 123.511719 C 160.671875 123.511719 161.464844 127.875 163.851562 129.386719 C 164.167969 131.5 164.492188 135.691406 163.003906 139.597656 Z M 194.582031 65.453125 C 194.679688 65.5 194.769531 65.550781 194.867188 65.597656 C 194.289062 65.917969 193.703125 66.257812 193.121094 66.617188 C 193.058594 66.578125 193.003906 66.53125 192.941406 66.496094 C 192.050781 66.015625 191.097656 65.773438 190.199219 65.542969 C 189.53125 65.375 188.886719 65.21875 188.253906 65.050781 C 188.636719 65.039062 189 65.019531 189.335938 64.996094 C 190.109375 64.917969 190.738281 64.851562 191.167969 64.746094 C 191.472656 64.6875 191.675781 64.648438 191.777344 64.628906 C 192.773438 64.792969 193.730469 65.058594 194.582031 65.453125 Z M 190.808594 68.140625 C 190.746094 68.125 190.683594 68.113281 190.613281 68.09375 C 190.335938 68.007812 190.015625 67.929688 189.683594 67.789062 C 189.011719 67.535156 188.246094 67.171875 187.472656 66.707031 C 187.097656 66.480469 186.722656 66.214844 186.324219 65.933594 C 186.335938 65.890625 186.351562 65.84375 186.363281 65.796875 C 186.53125 65.847656 186.703125 65.898438 186.871094 65.945312 C 187.039062 66.128906 187.242188 66.257812 187.414062 66.402344 C 187.632812 66.53125 187.839844 66.660156 188.046875 66.746094 C 188.457031 66.921875 188.839844 67.011719 189.15625 67.058594 C 189.3125 67.074219 189.453125 67.085938 189.578125 67.097656 C 189.695312 67.097656 189.800781 67.085938 189.882812 67.082031 C 190.050781 67.074219 190.140625 67.066406 190.140625 67.066406 C 190.140625 67.066406 190.050781 67.066406 189.882812 67.066406 C 189.800781 67.066406 189.695312 67.070312 189.578125 67.058594 C 189.457031 67.042969 189.316406 67.019531 189.164062 66.996094 C 188.859375 66.933594 188.492188 66.820312 188.105469 66.625 C 187.910156 66.53125 187.71875 66.390625 187.519531 66.257812 C 187.449219 66.1875 187.371094 66.121094 187.292969 66.054688 C 188.183594 66.269531 189.085938 66.410156 189.964844 66.578125 C 190.761719 66.730469 191.539062 66.890625 192.234375 67.171875 C 191.75 67.484375 191.273438 67.808594 190.808594 68.140625 Z M 187.253906 49.269531 L 187.417969 49.496094 L 187.566406 49.761719 L 187.855469 50.292969 C 187.996094 50.554688 188.09375 50.953125 188.15625 51.3125 C 188.289062 52.050781 188.3125 52.804688 188.289062 53.53125 C 188.234375 54.980469 187.960938 56.324219 187.488281 57.371094 C 187.425781 57.511719 187.355469 57.644531 187.28125 57.773438 C 187.070312 57.613281 186.863281 57.464844 186.667969 57.320312 C 186.5625 57.246094 186.460938 57.171875 186.359375 57.101562 L 186.210938 56.996094 L 186.195312 56.980469 L 186.191406 56.980469 C 186.164062 56.957031 186.222656 57 186.214844 56.996094 L 186.207031 56.988281 L 186.171875 56.960938 L 186.101562 56.902344 C 185.96875 56.796875 185.847656 56.699219 185.71875 56.597656 C 186.109375 56.203125 186.46875 55.769531 186.761719 55.269531 C 187.867188 53.414062 187.628906 51.226562 186.890625 49.0625 C 186.988281 49.101562 187.085938 49.140625 187.191406 49.1875 Z M 186.433594 61.714844 C 186.304688 61.398438 186.179688 61.078125 186.011719 60.824219 C 185.917969 60.675781 185.84375 60.519531 185.742188 60.378906 C 185.636719 60.246094 185.539062 60.113281 185.4375 59.984375 C 185.304688 59.8125 185.164062 59.65625 185.023438 59.507812 C 185.019531 59.453125 185.011719 59.398438 185.003906 59.34375 C 185.164062 59.355469 185.367188 59.355469 185.613281 59.320312 C 185.910156 59.273438 186.257812 59.128906 186.59375 58.882812 C 186.78125 59.003906 186.964844 59.128906 187.132812 59.257812 C 187.339844 59.414062 187.5 59.578125 187.621094 59.753906 C 187.179688 60.394531 186.753906 61.039062 186.433594 61.714844 Z M 184.953125 58.863281 C 184.9375 58.703125 184.921875 58.546875 184.90625 58.390625 C 184.898438 58.246094 184.890625 58.101562 184.886719 57.960938 C 184.878906 57.917969 184.878906 57.871094 184.878906 57.828125 C 184.996094 57.902344 185.109375 57.980469 185.226562 58.058594 L 185.410156 58.179688 L 185.574219 58.273438 C 185.679688 58.335938 185.785156 58.398438 185.894531 58.460938 C 186.085938 58.574219 186.273438 58.683594 186.457031 58.796875 C 186.167969 59.03125 185.867188 59.179688 185.59375 59.242188 C 185.359375 59.296875 185.160156 59.308594 185 59.304688 C 184.980469 59.164062 184.960938 59.019531 184.953125 58.863281 Z M 185.382812 63.886719 C 185.242188 63.769531 185.082031 63.675781 184.960938 63.550781 L 184.777344 63.375 L 184.742188 63.328125 L 184.472656 62.964844 L 184.386719 62.847656 L 184.328125 62.738281 C 184.25 62.597656 184.175781 62.457031 184.101562 62.320312 C 183.824219 61.734375 183.625 61.144531 183.472656 60.578125 C 183.480469 60.460938 183.484375 60.347656 183.488281 60.238281 C 183.574219 60.304688 183.65625 60.367188 183.738281 60.4375 C 183.757812 60.503906 183.777344 60.566406 183.796875 60.632812 C 183.851562 60.816406 183.9375 61 184.011719 61.183594 C 184.316406 61.859375 184.792969 62.53125 185.429688 63.027344 C 185.441406 63.054688 185.449219 63.085938 185.460938 63.113281 C 185.519531 63.339844 185.535156 63.625 185.519531 63.933594 C 185.519531 63.945312 185.515625 63.957031 185.515625 63.96875 C 185.472656 63.941406 185.421875 63.914062 185.382812 63.886719 Z M 184.027344 42.945312 C 183.214844 41.308594 182.1875 39.765625 181.449219 38.097656 C 182.742188 38.863281 184.191406 39.683594 185.503906 40.679688 C 185.457031 40.765625 185.410156 40.851562 185.363281 40.933594 C 184.925781 41.761719 184.535156 42.558594 184.210938 43.320312 C 184.148438 43.195312 184.085938 43.070312 184.027344 42.945312 Z M 181.59375 36.421875 C 181.230469 36.15625 180.894531 35.898438 180.597656 35.660156 C 180.980469 35.765625 181.378906 35.878906 181.792969 35.996094 C 182.957031 36.335938 184.238281 36.730469 185.46875 37.332031 C 185.769531 37.488281 186.085938 37.632812 186.371094 37.828125 C 186.539062 37.9375 186.714844 38.046875 186.886719 38.160156 C 186.75 38.410156 186.617188 38.660156 186.480469 38.90625 C 186.3125 39.207031 186.144531 39.507812 185.980469 39.800781 C 184.507812 38.464844 182.855469 37.367188 181.59375 36.421875 Z M 180.96875 59.96875 C 181.125 59.855469 181.28125 59.746094 181.441406 59.636719 C 181.488281 59.910156 181.542969 60.195312 181.613281 60.496094 C 181.703125 60.890625 181.820312 61.308594 181.972656 61.734375 C 181.976562 61.785156 181.980469 61.835938 181.980469 61.886719 C 181.910156 61.800781 181.835938 61.71875 181.769531 61.632812 C 181.5 61.28125 181.285156 60.910156 181.101562 60.539062 C 181.054688 60.347656 181.015625 60.15625 180.96875 59.96875 Z M 184.628906 65.652344 C 184.792969 65.8125 184.996094 65.941406 185.1875 66.074219 C 185.070312 66.726562 184.949219 67.394531 184.960938 68.121094 C 184.972656 68.507812 185.035156 68.921875 185.230469 69.316406 C 185.332031 69.511719 185.464844 69.695312 185.632812 69.84375 C 185.710938 69.917969 185.832031 70.003906 185.90625 70.050781 C 185.980469 70.089844 186.054688 70.140625 186.164062 70.179688 C 186.566406 70.382812 186.980469 70.378906 187.34375 70.359375 C 187.652344 70.339844 187.929688 70.285156 188.203125 70.230469 C 187.699219 70.695312 187.222656 71.167969 186.796875 71.65625 C 186.273438 71.375 185.765625 70.988281 185.335938 70.492188 C 184.628906 69.703125 184.164062 68.636719 183.875 67.519531 C 183.617188 66.523438 183.5 65.476562 183.445312 64.460938 C 183.796875 64.898438 184.191406 65.304688 184.628906 65.652344 Z M 188.941406 69.582031 C 188.722656 69.59375 188.496094 69.617188 188.277344 69.640625 C 187.644531 69.714844 186.949219 69.804688 186.503906 69.535156 C 186.453125 69.519531 186.386719 69.464844 186.308594 69.417969 C 186.242188 69.367188 186.222656 69.339844 186.175781 69.296875 C 186.09375 69.203125 186.027344 69.097656 185.976562 68.976562 C 185.882812 68.734375 185.851562 68.4375 185.871094 68.125 C 185.875 68.011719 185.890625 67.898438 185.90625 67.78125 C 186.070312 68.027344 186.230469 68.230469 186.367188 68.390625 C 186.523438 68.5625 186.644531 68.695312 186.738281 68.777344 C 186.828125 68.859375 186.875 68.90625 186.875 68.90625 C 186.875 68.90625 186.832031 68.855469 186.753906 68.761719 C 186.671875 68.671875 186.5625 68.527344 186.429688 68.347656 C 186.28125 68.132812 186.105469 67.84375 185.949219 67.5 C 186 67.222656 186.058594 66.941406 186.132812 66.65625 C 186.484375 66.847656 186.84375 67.039062 187.203125 67.203125 C 188.058594 67.597656 188.882812 67.875 189.597656 68.054688 C 189.949219 68.15625 190.289062 68.203125 190.578125 68.257812 C 190.597656 68.261719 190.613281 68.261719 190.632812 68.265625 C 190.046875 68.6875 189.480469 69.128906 188.941406 69.582031 Z M 187.902344 64.144531 C 188.703125 64.328125 189.539062 64.402344 190.3125 64.453125 C 190.792969 64.488281 191.273438 64.546875 191.746094 64.625 C 191.636719 64.632812 191.441406 64.648438 191.15625 64.671875 C 190.71875 64.730469 190.082031 64.722656 189.324219 64.71875 C 188.5625 64.6875 187.671875 64.628906 186.722656 64.496094 L 186.675781 64.492188 C 186.707031 64.34375 186.734375 64.199219 186.753906 64.046875 C 186.757812 64.007812 186.761719 63.964844 186.765625 63.921875 C 186.804688 63.894531 186.84375 63.863281 186.882812 63.832031 C 187.21875 63.960938 187.5625 64.066406 187.902344 64.144531 Z M 187.859375 60.871094 C 187.847656 60.988281 187.824219 61.097656 187.789062 61.207031 L 187.742188 61.375 L 187.667969 61.5625 C 187.566406 61.832031 187.480469 62.035156 187.359375 62.25 C 187.277344 62.394531 187.179688 62.53125 187.074219 62.664062 C 186.925781 62.589844 186.785156 62.503906 186.648438 62.414062 C 186.660156 62.390625 186.664062 62.367188 186.675781 62.347656 C 186.972656 61.703125 187.402344 61.09375 187.882812 60.476562 C 187.890625 60.601562 187.890625 60.734375 187.859375 60.871094 Z M 190.050781 54.050781 C 190.011719 54.777344 189.847656 55.542969 189.621094 56.242188 L 189.417969 56.808594 C 189.34375 56.976562 189.285156 57.144531 189.203125 57.3125 C 189.035156 57.644531 188.84375 57.972656 188.632812 58.292969 C 188.535156 58.445312 188.433594 58.597656 188.328125 58.746094 C 188.210938 58.597656 188.085938 58.464844 187.964844 58.351562 C 187.800781 58.195312 187.636719 58.058594 187.476562 57.929688 C 187.566406 57.789062 187.65625 57.648438 187.742188 57.492188 C 188.308594 56.4375 188.695312 55.074219 188.863281 53.570312 C 188.9375 52.816406 188.972656 52.027344 188.886719 51.210938 C 188.84375 50.859375 188.796875 50.527344 188.671875 50.152344 C 188.71875 50.199219 188.773438 50.246094 188.820312 50.292969 C 189.703125 51.183594 190.148438 52.574219 190.050781 54.050781 Z M 188.394531 39.484375 L 188.535156 39.636719 L 188.539062 39.636719 L 188.546875 39.648438 L 188.707031 39.863281 C 189.558594 40.988281 190.171875 42.273438 190.554688 43.523438 C 190.917969 44.777344 191.0625 46 190.996094 47.035156 C 190.9375 48.074219 190.726562 48.929688 190.511719 49.492188 C 190.441406 49.71875 190.351562 49.898438 190.289062 50.039062 C 190.148438 49.820312 190 49.605469 189.835938 49.414062 C 189.058594 48.460938 188.023438 47.910156 187.113281 47.523438 C 186.585938 46.875 186.011719 46.289062 185.449219 45.726562 C 185.105469 45.039062 184.757812 44.371094 184.433594 43.746094 C 184.824219 42.945312 185.3125 42.097656 185.863281 41.214844 C 185.902344 41.160156 185.933594 41.101562 185.972656 41.046875 C 186 41.066406 186.023438 41.085938 186.042969 41.105469 C 186.25 41.277344 186.453125 41.453125 186.65625 41.628906 C 186.855469 41.816406 187.050781 42.011719 187.246094 42.199219 C 187.4375 42.367188 187.601562 42.582031 187.777344 42.769531 L 188.03125 43.054688 C 188.109375 43.15625 188.179688 43.257812 188.253906 43.355469 C 188.855469 44.140625 189.230469 44.984375 189.328125 45.765625 C 189.425781 46.542969 189.375 47.203125 189.316406 47.660156 C 189.25 48.121094 189.210938 48.378906 189.210938 48.378906 C 189.210938 48.378906 189.273438 48.125 189.390625 47.675781 C 189.496094 47.226562 189.625 46.5625 189.613281 45.738281 C 189.59375 44.914062 189.289062 43.945312 188.734375 43.046875 C 188.667969 42.933594 188.597656 42.816406 188.53125 42.699219 C 188.453125 42.589844 188.375 42.484375 188.292969 42.375 C 188.128906 42.15625 187.984375 41.925781 187.792969 41.710938 C 187.617188 41.5 187.441406 41.292969 187.261719 41.078125 C 187.066406 40.871094 186.867188 40.664062 186.667969 40.453125 C 186.601562 40.386719 186.535156 40.328125 186.472656 40.265625 C 186.683594 39.941406 186.898438 39.609375 187.117188 39.277344 C 187.246094 39.070312 187.382812 38.855469 187.515625 38.644531 C 187.683594 38.773438 187.851562 38.910156 188.007812 39.089844 Z M 183.113281 33.378906 C 183.851562 33.492188 184.597656 33.613281 185.296875 33.828125 C 185.992188 34.042969 186.65625 34.351562 187.011719 34.882812 L 187.152344 35.082031 L 187.242188 35.308594 C 187.328125 35.453125 187.339844 35.628906 187.382812 35.792969 C 187.433594 36.128906 187.449219 36.457031 187.390625 36.886719 L 187.375 37.035156 L 187.367188 37.113281 L 187.367188 37.117188 L 187.363281 37.128906 C 187.363281 37.132812 187.363281 37.136719 187.363281 37.136719 C 187.246094 37.050781 187.128906 36.96875 187.015625 36.882812 C 186.714844 36.640625 186.382812 36.457031 186.0625 36.261719 C 184.765625 35.503906 183.4375 34.996094 182.269531 34.566406 C 181.210938 34.183594 180.289062 33.867188 179.539062 33.589844 C 179.382812 33.273438 179.222656 32.960938 179.054688 32.648438 C 179.644531 32.792969 180.285156 32.925781 180.976562 33.042969 C 181.652344 33.148438 182.367188 33.261719 183.113281 33.378906 Z M 182.691406 67.589844 C 182.300781 66.15625 182 64.679688 181.691406 63.203125 C 181.832031 63.316406 181.972656 63.429688 182.121094 63.535156 C 182.136719 63.742188 182.164062 63.953125 182.191406 64.167969 C 182.34375 65.355469 182.578125 66.597656 183.007812 67.777344 C 183.429688 68.953125 184.054688 70.082031 184.917969 70.878906 C 185.421875 71.359375 185.988281 71.710938 186.546875 71.957031 C 186.117188 72.472656 185.734375 73 185.417969 73.539062 C 183.867188 72.082031 183.078125 69.019531 182.691406 67.589844 Z M 182.691406 67.589844 "/></g></g></svg>